<svg xmlns="http://www.w3.org/2000/svg" width="36" height="35.997" viewBox="0 0 36 35.997"><path d="M1431.094,1098.989h-12.58a1.033,1.033,0,0,1-1.042-1.036,1.049,1.049,0,0,1,1.042-1.055h12.58a1.05,1.05,0,0,1,1.048,1.055A1.034,1.034,0,0,1,1431.094,1098.989Zm-23.062,0h-10.477a1.039,1.039,0,0,1-1.055-1.036v-10.49a1.09,1.09,0,0,1,.307-.742l22.193-22.2a5.246,5.246,0,0,1,7.415,0l4.558,4.558a5.247,5.247,0,0,1,0,7.4l-22.2,22.208A1.054,1.054,0,0,1,1408.031,1098.989Zm-9.428-2.09h9l21.88-21.889a3.133,3.133,0,0,0,0-4.449l-4.551-4.558a3.147,3.147,0,0,0-4.449,0L1398.6,1087.9Z" transform="translate(-1396.5 -1062.992)" fill="#1c1c1c"/></svg>