<svg xmlns="http://www.w3.org/2000/svg" xmlns:xlink="http://www.w3.org/1999/xlink" width="36" height="35.999" viewBox="0 0 36 35.999"><defs><clipPath id="a"><rect width="36" height="35.999" transform="translate(0 0)" fill="#fff"/></clipPath></defs><g transform="translate(0 0)"><g transform="translate(0 0)" clip-path="url(#a)"><path d="M25.571,36a2.671,2.671,0,0,1-2.537-1.768L17.246,18.754,1.768,12.966a2.721,2.721,0,0,1,.289-5.188L32.612.083a2.722,2.722,0,0,1,3.3,3.3L28.222,33.941a2.675,2.675,0,0,1-2.488,2.053c-.054,0-.109.005-.163.005m7.715-34.1a.885.885,0,0,0-.211.027h0L2.52,9.616a.826.826,0,0,0-.087,1.575L18.314,17.13a.949.949,0,0,1,.555.556l5.939,15.881a.827.827,0,0,0,1.576-.088L34.079,2.924a.812.812,0,0,0-.218-.786.822.822,0,0,0-.575-.244M32.843,1h0Z" transform="translate(0 0)" fill="#fff"/><path d="M27.918,19.284a.947.947,0,0,1-.67-1.617L43.771,1.145a.947.947,0,1,1,1.34,1.34L28.589,19.007a.944.944,0,0,1-.67.277" transform="translate(-9.937 -0.32)" fill="#fff"/></g></g></svg>