<svg xmlns="http://www.w3.org/2000/svg" width="36" height="45.6" viewBox="0 0 36 45.6"><path d="M160.5,539.1h-24a6.006,6.006,0,0,1-6-6,10.812,10.812,0,0,1,10.8-10.8h14.4a10.812,10.812,0,0,1,10.8,10.8A6.006,6.006,0,0,1,160.5,539.1Zm-19.2-14.4a8.409,8.409,0,0,0-8.4,8.4,3.6,3.6,0,0,0,3.6,3.6h24a3.6,3.6,0,0,0,3.6-3.6,8.409,8.409,0,0,0-8.4-8.4Zm7.2-9.6a10.8,10.8,0,1,1,10.8-10.8A10.812,10.812,0,0,1,148.5,515.1Zm0-19.2a8.4,8.4,0,1,0,8.4,8.4A8.409,8.409,0,0,0,148.5,495.9Z" transform="translate(-130.5 -493.5)" fill="#333"/></svg>