<svg xmlns="http://www.w3.org/2000/svg" xmlns:xlink="http://www.w3.org/1999/xlink" width="36" height="34.2" viewBox="0 0 36 34.2"><defs><clipPath id="a"><rect width="36" height="34.2" fill="#1c1c1c"/></clipPath></defs><g transform="translate(0 0)"><g transform="translate(0 0)" clip-path="url(#a)"><path d="M21.895,34.2a.969.969,0,0,1-.306-.05.917.917,0,0,1-.528-.46l-1.555-3.142a12.434,12.434,0,0,1-3.011,0L14.94,33.689a.921.921,0,0,1-.528.46.959.959,0,0,1-.708-.039L7.029,30.982a.911.911,0,0,1-.473-.514.883.883,0,0,1,.04-.689l1.557-3.145a13.548,13.548,0,0,1-1.882-2.287l-3.491.775a.926.926,0,0,1-1.109-.677L.023,17.417a.882.882,0,0,1,.119-.68.928.928,0,0,1,.578-.4l3.5-.776A13.137,13.137,0,0,1,4.88,12.7l-2.8-2.171a.9.9,0,0,1-.343-.6.884.884,0,0,1,.2-.663L6.554,3.628a.944.944,0,0,1,1.3-.142l2.8,2.171A14.026,14.026,0,0,1,13.37,4.381V.9A.914.914,0,0,1,14.3,0H21.7a.914.914,0,0,1,.926.9V4.381a14.009,14.009,0,0,1,2.717,1.276l2.8-2.171a.945.945,0,0,1,1.3.142l4.619,5.636a.884.884,0,0,1,.2.663.9.9,0,0,1-.343.6L31.12,12.7a13.137,13.137,0,0,1,.663,2.86l3.5.776a.928.928,0,0,1,.578.4.882.882,0,0,1,.119.68l-1.649,7.029a.924.924,0,0,1-1.109.677l-3.49-.775a13.582,13.582,0,0,1-1.883,2.287L29.4,29.779a.88.88,0,0,1,.04.689.912.912,0,0,1-.472.514L22.3,34.11a.946.946,0,0,1-.4.09m-1.848-5.537a.928.928,0,0,1,.834.511L22.327,32.1l5.005-2.346-1.446-2.924A.883.883,0,0,1,26.1,25.77a11.82,11.82,0,0,0,2.379-2.891.933.933,0,0,1,1.012-.434l3.242.72,1.237-5.271-3.25-.721a.91.91,0,0,1-.719-.82,11.379,11.379,0,0,0-.837-3.611.886.886,0,0,1,.282-1.042l2.6-2.017L28.575,5.456l-2.6,2.018a.944.944,0,0,1-1.107.034A12.155,12.155,0,0,0,21.44,5.9a.9.9,0,0,1-.662-.863V1.8H15.222V5.035a.9.9,0,0,1-.662.863,12.155,12.155,0,0,0-3.429,1.61.944.944,0,0,1-1.106-.034l-2.6-2.018L3.96,9.683l2.6,2.017a.886.886,0,0,1,.282,1.042A11.379,11.379,0,0,0,6,16.353a.909.909,0,0,1-.719.82l-3.25.721,1.237,5.271,3.242-.72a.932.932,0,0,1,1.012.434A11.834,11.834,0,0,0,9.9,25.77a.883.883,0,0,1,.211,1.056L8.667,29.75,13.672,32.1l1.446-2.923a.93.93,0,0,1,.98-.5,11.2,11.2,0,0,0,3.8,0,.922.922,0,0,1,.146-.011" transform="translate(0 0)" fill="#1c1c1c"/><path d="M25.14,30.615a6.31,6.31,0,1,1,6.482-6.308,6.4,6.4,0,0,1-6.482,6.308m0-10.813a4.507,4.507,0,1,0,4.63,4.506A4.574,4.574,0,0,0,25.14,19.8" transform="translate(-7.14 -7.187)" fill="#1c1c1c"/></g></g></svg>