<svg xmlns="http://www.w3.org/2000/svg" xmlns:xlink="http://www.w3.org/1999/xlink" width="28" height="35" viewBox="0 0 28 35"><defs><clipPath id="a"><rect width="28" height="35" fill="#6e34da"/></clipPath></defs><g clip-path="url(#a)"><path d="M17.4,16.579A8.355,8.355,0,0,1,9,8.289a8.4,8.4,0,0,1,16.8,0,8.355,8.355,0,0,1-8.4,8.289m0-14.737a6.5,6.5,0,0,0-6.533,6.447,6.534,6.534,0,0,0,13.067,0A6.5,6.5,0,0,0,17.4,1.842" transform="translate(-3.4)" fill="#6e34da"/><path d="M23.333,48.895H4.667A4.641,4.641,0,0,1,0,44.289,8.355,8.355,0,0,1,8.4,36H19.6A8.355,8.355,0,0,1,28,44.289a4.641,4.641,0,0,1-4.667,4.605M8.4,37.842a6.5,6.5,0,0,0-6.533,6.447,2.785,2.785,0,0,0,2.8,2.763H23.333a2.785,2.785,0,0,0,2.8-2.763A6.5,6.5,0,0,0,19.6,37.842Z" transform="translate(0 -13.895)" fill="#6e34da"/></g></svg>