<svg xmlns="http://www.w3.org/2000/svg" xmlns:xlink="http://www.w3.org/1999/xlink" width="34" height="35.789" viewBox="0 0 34 35.789"><defs><clipPath id="a"><rect width="34" height="35.789" fill="#1c1c1c"/></clipPath></defs><g clip-path="url(#a)"><path d="M29.526,28.632H4.474a4.474,4.474,0,0,1,0-8.947.9.9,0,0,0,.895-.895V11.632a11.632,11.632,0,1,1,23.263,0v7.158a.9.9,0,0,0,.895.895,4.474,4.474,0,0,1,0,8.947M17,1.789a9.853,9.853,0,0,0-9.842,9.842v7.158a2.687,2.687,0,0,1-2.684,2.684,2.684,2.684,0,1,0,0,5.368H29.526a2.684,2.684,0,1,0,0-5.368,2.687,2.687,0,0,1-2.684-2.684V11.632A9.853,9.853,0,0,0,17,1.789" fill="#1c1c1c"/><path d="M24.263,53.947A6.27,6.27,0,0,1,18,47.684V45.895a.895.895,0,0,1,1.789,0v1.789a4.474,4.474,0,1,0,8.947,0V45.895a.895.895,0,0,1,1.789,0v1.789a6.27,6.27,0,0,1-6.263,6.263" transform="translate(-7.263 -18.158)" fill="#1c1c1c"/></g></svg>