<svg xmlns="http://www.w3.org/2000/svg" xmlns:xlink="http://www.w3.org/1999/xlink" width="34" height="35.639" viewBox="0 0 34 35.639"><defs><clipPath id="a"><rect width="34" height="35.639" transform="translate(0 0)" fill="#9999a3"/></clipPath></defs><g transform="translate(0 0)"><g transform="translate(0 0)" clip-path="url(#a)"><path d="M29,35.639H21a1,1,0,0,1-1-1v-9H14v9a1,1,0,0,1-1,1H5a5.005,5.005,0,0,1-5-5V11.747A2.984,2.984,0,0,1,1.41,9.2l14-8.751a3.019,3.019,0,0,1,3.179,0h0l14,8.75A2.986,2.986,0,0,1,34,11.747V30.639a5.005,5.005,0,0,1-5,5m-7-2h7a3,3,0,0,0,3-3V11.747a1,1,0,0,0-.471-.848l-14-8.749a1,1,0,0,0-1.06,0l-14,8.75a.994.994,0,0,0-.47.847V30.639a3,3,0,0,0,3,3h7v-9a1,1,0,0,1,1-1h8a1,1,0,0,1,1,1Z" transform="translate(0 0)" fill="#9999a3"/></g></g></svg>