<svg xmlns="http://www.w3.org/2000/svg" xmlns:xlink="http://www.w3.org/1999/xlink" width="35" height="35.15" viewBox="0 0 35 35.15"><defs><clipPath id="a"><rect width="35" height="35.15" transform="translate(0 0)" fill="#9999a3"/></clipPath></defs><g transform="translate(0 0)"><g transform="translate(0 0)" clip-path="url(#a)"><path d="M2.71,35.15A2.72,2.72,0,0,1,.083,31.773L2.016,24.04A17.2,17.2,0,1,1,35,17.383l-.906-.01.906.01A17.474,17.474,0,0,1,18.865,34.376,17.054,17.054,0,0,1,11.227,33.1l-7.85,1.962a2.783,2.783,0,0,1-.668.083M17.754,1.811a15.8,15.8,0,0,0-2.377.18A15.376,15.376,0,0,0,3.794,23.581a.9.9,0,0,1,.055.6L1.84,32.213a.906.906,0,0,0,1.1,1.1l8.144-2.036a.913.913,0,0,1,.581.048,15.256,15.256,0,0,0,7.091,1.247,15.633,15.633,0,0,0,14.434-15.2A15.387,15.387,0,0,0,17.754,1.811" transform="translate(0 0)" fill="#9999a3"/></g></g></svg>