<svg xmlns="http://www.w3.org/2000/svg" xmlns:xlink="http://www.w3.org/1999/xlink" width="36" height="36" viewBox="0 0 36 36"><defs><clipPath id="a"><rect width="18" height="18" fill="#9999a3"/></clipPath></defs><g transform="translate(-4)"><g transform="translate(13 9)"><g clip-path="url(#a)"><path d="M25,18a1,1,0,0,1-1-1V1a1,1,0,0,1,2,0V17a1,1,0,0,1-1,1" transform="translate(-16 0)" fill="#9999a3"/><path d="M17,26H1a1,1,0,0,1,0-2H17a1,1,0,1,1,0,2" transform="translate(0 -16)" fill="#9999a3"/></g></g><g transform="translate(4)" fill="none" stroke="#9999a3" stroke-width="1"><rect width="36" height="36" rx="6" stroke="none"/><rect x="0.5" y="0.5" width="35" height="35" rx="5.5" fill="none"/></g></g></svg>