<svg xmlns="http://www.w3.org/2000/svg" xmlns:xlink="http://www.w3.org/1999/xlink" width="36" height="32.4" viewBox="0 0 36 32.4"><defs><clipPath id="a"><rect width="36" height="32.4" fill="#1c1c1c"/></clipPath></defs><g clip-path="url(#a)"><path d="M34.941,23.16H1.059a1.08,1.08,0,0,1,0-2.16H34.941a1.08,1.08,0,0,1,0,2.16" transform="translate(0 -5.88)" fill="#1c1c1c"/><path d="M34.941,2.16H1.059A1.07,1.07,0,0,1,0,1.08,1.07,1.07,0,0,1,1.059,0H34.941A1.07,1.07,0,0,1,36,1.08a1.07,1.07,0,0,1-1.059,1.08" fill="#1c1c1c"/><path d="M34.941,44.16H1.059a1.08,1.08,0,0,1,0-2.16H34.941a1.08,1.08,0,0,1,0,2.16" transform="translate(0 -11.76)" fill="#1c1c1c"/></g></svg>