<svg xmlns="http://www.w3.org/2000/svg" xmlns:xlink="http://www.w3.org/1999/xlink" width="36" height="36" viewBox="0 0 36 36"><defs><clipPath id="a"><rect width="36" height="36" fill="#1c1c1c"/></clipPath></defs><g clip-path="url(#a)"><path d="M2.571,36A2.571,2.571,0,0,1,.753,31.611L31.611.753a2.571,2.571,0,1,1,3.636,3.636L4.389,35.247A2.561,2.561,0,0,1,2.571,36" transform="translate(0 0)" fill="#1c1c1c"/><path d="M33.429,36a2.561,2.561,0,0,1-1.818-.753L.753,4.389A2.571,2.571,0,0,1,4.389.753L35.247,31.611A2.571,2.571,0,0,1,33.429,36" transform="translate(0 0)" fill="#1c1c1c"/></g></svg>