<svg xmlns="http://www.w3.org/2000/svg" width="36" height="48" viewBox="0 0 36 48"><path d="M994.5,1108.5a1.191,1.191,0,0,1-.781-.289c-.7-.6-17.219-14.928-17.219-29.711a18,18,0,1,1,36,0c0,14.783-16.516,29.109-17.219,29.711A1.191,1.191,0,0,1,994.5,1108.5Zm0-45.6a15.617,15.617,0,0,0-15.6,15.6c0,11.927,12.338,24.159,15.6,27.183,3.262-3.024,15.6-15.256,15.6-27.183A15.618,15.618,0,0,0,994.5,1062.9Zm0,24a8.4,8.4,0,1,1,8.4-8.4A8.408,8.408,0,0,1,994.5,1086.9Zm0-14.4a6,6,0,1,0,6,6A6.007,6.007,0,0,0,994.5,1072.5Z" transform="translate(-976.5 -1060.5)" fill="#1c1c1c"/></svg>