<svg xmlns="http://www.w3.org/2000/svg" xmlns:xlink="http://www.w3.org/1999/xlink" width="36" height="36" viewBox="0 0 36 36"><defs><clipPath id="a"><rect width="36" height="36" fill="#1c1c1c"/></clipPath></defs><g clip-path="url(#a)"><path d="M18,36A18,18,0,1,1,36,18,18.02,18.02,0,0,1,18,36M18,1.895A16.105,16.105,0,1,0,34.105,18,16.123,16.123,0,0,0,18,1.895" fill="#1c1c1c"/><path d="M27.947,32.053A.947.947,0,0,1,27,31.106V15.947a.947.947,0,1,1,1.895,0V31.106a.947.947,0,0,1-.947.947" transform="translate(-9.947 -5.526)" fill="#1c1c1c"/><path d="M31.105,28.895H15.947a.947.947,0,0,1,0-1.895H31.105a.947.947,0,1,1,0,1.895" transform="translate(-5.526 -9.947)" fill="#1c1c1c"/></g></svg>