<svg xmlns="http://www.w3.org/2000/svg" xmlns:xlink="http://www.w3.org/1999/xlink" width="36" height="36" viewBox="0 0 36 36"><defs><clipPath id="a"><rect width="36" height="36" fill="#1c1c1c"/></clipPath></defs><g clip-path="url(#a)"><path d="M16,32A16,16,0,1,1,32,16,16.019,16.019,0,0,1,16,32M16,2A14,14,0,1,0,30,16,14.016,14.016,0,0,0,16,2" fill="#1c1c1c"/><path d="M48,49a1,1,0,0,1-.707-.293l-8-8a1,1,0,0,1,1.415-1.415l8,8A1,1,0,0,1,48,49" transform="translate(-13 -13)" fill="#1c1c1c"/></g></svg>